<svg width="24" height="24" viewBox="0 0 24 24" fill="none" xmlns="http://www.w3.org/2000/svg">
    <path d="M22.54 6.42C22.4213 5.94541 22.1793 5.51057 21.8387 5.15941C21.498 4.80824 21.0708 4.55318 20.6 4.42C18.88 4 12 4 12 4C12 4 5.12 4 3.4 4.42C2.92925 4.55318 2.50198 4.80824 2.1613 5.15941C1.82062 5.51057 1.57872 5.94541 1.46 6.42C1.14521 8.186 0.991235 9.97674 1 11.77C0.991235 13.5633 1.14521 15.354 1.46 17.12C1.57872 17.5946 1.82062 18.0294 2.1613 18.3806C2.50198 18.7318 2.92925 18.9868 3.4 19.12C5.12 19.54 12 19.54 12 19.54C12 19.54 18.88 19.54 20.6 19.12C21.0708 18.9868 21.498 18.7318 21.8387 18.3806C22.1793 18.0294 22.4213 17.5946 22.54 17.12C22.8524 15.354 23.0063 13.5633 23 11.77C23.0063 9.97674 22.8524 8.186 22.54 6.42Z" stroke="black" stroke-width="2" stroke-linecap="round" stroke-linejoin="round"/>
    <path d="M9.75 15.02L15.5 11.77L9.75 8.52V15.02Z" stroke="black" stroke-width="2" stroke-linecap="round" stroke-linejoin="round"/>
</svg> 